<svg xmlns="http://www.w3.org/2000/svg" xmlns:xlink="http://www.w3.org/1999/xlink" width="156.68" height="155.57" viewBox="0 0 156.68 155.57">
  <defs>
    <style>
      .cls-1 {
        fill: url(#linear-gradient);
      }

      .cls-2 {
        fill: #142b65;
      }
    </style>
    <linearGradient id="linear-gradient" x1="-4849.95" y1="-2322.14" x2="-4694.57" y2="-2322.14" gradientTransform="translate(5094.99 -1654.62) rotate(-45)" gradientUnits="userSpaceOnUse">
      <stop offset="0" stop-color="#fff"/>
      <stop offset="1" stop-color="#ffc392"/>
    </linearGradient>
  </defs>
  <title>Asset 9</title>
  <g id="Layer_2" data-name="Layer 2">
    <g id="Layer_1-2" data-name="Layer 1">
      <g>
        <circle class="cls-1" cx="78.5" cy="77.88" r="77.69"/>
        <path class="cls-2" d="M23.08,66.74,23,55H14.41V0H91.85V8.76a1.55,1.55,0,1,1-3.1,0V3.11H17.51V51.88h8.57L26.14,60l9.3-8.08h28a1.55,1.55,0,1,1,0,3.1H36.6Z"/>
        <path class="cls-2" d="M77.59,81A16.32,16.32,0,1,1,61.28,97.28,16.34,16.34,0,0,1,77.59,81m0-3.11A19.43,19.43,0,1,0,97,97.28,19.43,19.43,0,0,0,77.59,77.85Z"/>
        <path class="cls-2" d="M32.64,88.73A12.43,12.43,0,1,1,20.2,101.16,12.45,12.45,0,0,1,32.64,88.73m0-3.11a15.54,15.54,0,1,0,15.53,15.54A15.54,15.54,0,0,0,32.64,85.62Z"/>
        <path class="cls-2" d="M40.84,155.55H0V154a32.25,32.25,0,0,1,49.77-27.08,1.55,1.55,0,1,1-1.69,2.61A29.15,29.15,0,0,0,3.15,152.45H40.84a1.55,1.55,0,1,1,0,3.1Z"/>
        <path class="cls-2" d="M156.68,155.55H116.36a1.55,1.55,0,1,1,0-3.1h37.17a29.15,29.15,0,0,0-45.91-22.26,1.55,1.55,0,0,1-1.79-2.54A32.25,32.25,0,0,1,156.68,154Z"/>
        <path class="cls-2" d="M123.26,88.73a12.43,12.43,0,1,1-12.43,12.43,12.44,12.44,0,0,1,12.43-12.43m0-3.11a15.54,15.54,0,1,0,15.54,15.54,15.54,15.54,0,0,0-15.54-15.54Z"/>
        <path class="cls-2" d="M77.59,123.3a29.14,29.14,0,0,1,29.14,29.14H48.46A29.14,29.14,0,0,1,77.59,123.3m0-3.1a32.27,32.27,0,0,0-32.24,32.24v3.1h64.48v-3.1A32.27,32.27,0,0,0,77.59,120.2Z"/>
        <path class="cls-2" d="M142.46,16.38v48h-12l0,3.08,0,3.62-6.83-5.94-.88-.76H71v-48h71.47m3.11-3.11H67.88V67.49H121.5l11.92,10.36.08-10.36h12.07V13.27Z"/>
      </g>
    </g>
  </g>
</svg>
