<svg xmlns="http://www.w3.org/2000/svg" xmlns:xlink="http://www.w3.org/1999/xlink" width="155.38" height="155.38" viewBox="0 0 155.38 155.38">
  <defs>
    <style>
      .cls-1 {
        fill: url(#linear-gradient);
      }

      .cls-2 {
        fill: #142b65;
      }
    </style>
    <linearGradient id="linear-gradient" x1="-4758.2" y1="-2545.59" x2="-4602.82" y2="-2545.59" gradientTransform="translate(5187.32 -1431.93) rotate(-45)" gradientUnits="userSpaceOnUse">
      <stop offset="0" stop-color="#fff"/>
      <stop offset="1" stop-color="#efc4ce"/>
    </linearGradient>
  </defs>
  <title>Asset 10</title>
  <g id="Layer_2" data-name="Layer 2">
    <g id="Layer_1-2" data-name="Layer 1">
      <g>
        <circle class="cls-1" cx="77.69" cy="77.69" r="77.69"/>
        <rect class="cls-2" x="18.13" y="111.3" width="27.14" height="3.11" transform="translate(-83.88 93.29) rotate(-64.71)"/>
        <path class="cls-2" d="M152.28,3.11v48h-37l-.91.92-6.45,6.53-.24-4.51-.16-2.94H80.8v-48h71.48M155.38,0H77.69V54.21h26.83l.62,11.54,11.39-11.54h38.85V0Z"/>
        <path class="cls-2" d="M62.92,25.75V66h-15l-.15,2.94-.25,4.52L41.07,66.9,40.15,66h-37V25.75H62.92M66,22.64H0V69.09H38.85L50.24,80.62l.62-11.53H66V22.64Z"/>
        <path class="cls-2" d="M108.43,104.7l-.23,0-8.4-1.21a1.56,1.56,0,1,1,.44-3.08l8.41,1.22a1.55,1.55,0,0,1-.22,3.09Z"/>
        <path class="cls-2" d="M54.4,96.9l-.23,0-5.69-.82A1.55,1.55,0,1,1,48.92,93l5.7.82a1.55,1.55,0,0,1-.22,3.09Z"/>
        <rect class="cls-2" x="112.69" y="84.63" width="23.9" height="3.11" transform="translate(-4.45 165.54) rotate(-66.24)"/>
        <path class="cls-2" d="M77.69,80.8A16.32,16.32,0,1,1,61.38,97.11,16.33,16.33,0,0,1,77.69,80.8m0-3.11A19.43,19.43,0,1,0,97.11,97.11,19.42,19.42,0,0,0,77.69,77.69Z"/>
        <path class="cls-2" d="M77.69,123.14a29.14,29.14,0,0,1,29.14,29.14H48.56a29.14,29.14,0,0,1,29.13-29.14m0-3.11a32.28,32.28,0,0,0-32.24,32.25v3.1h64.48v-3.1A32.28,32.28,0,0,0,77.69,120Z"/>
        <path class="cls-2" d="M132.66,61.38a6.6,6.6,0,1,1-6.61,6.6,6.61,6.61,0,0,1,6.61-6.6m0-3.11A9.71,9.71,0,1,0,142.37,68a9.72,9.72,0,0,0-9.71-9.71Z"/>
        <path class="cls-2" d="M22.35,54.57v-7c0-6.72,3.06-11.19,8.53-12.6v5c-2.32,1.16-3.31,3.07-3.31,6.3h3.31v8.29Zm12.68,0v-7c0-6.72,3.06-11.19,8.53-12.6v5c-2.32,1.16-3.31,3.07-3.31,6.3h3.31v8.29Z"/>
        <path class="cls-2" d="M110.31,40.29C123,40.29,129.9,29.8,129.9,20.7c0-.3,0-.59,0-.89a13.86,13.86,0,0,0,3.44-3.56,14.15,14.15,0,0,1-4,1.08,6.84,6.84,0,0,0,3-3.81A13.76,13.76,0,0,1,128,15.19a6.89,6.89,0,0,0-11.91,4.71,6.75,6.75,0,0,0,.18,1.57,19.58,19.58,0,0,1-14.2-7.19,6.9,6.9,0,0,0,2.13,9.19,6.91,6.91,0,0,1-3.11-.86.28.28,0,0,0,0,.09,6.9,6.9,0,0,0,5.53,6.75,7.26,7.26,0,0,1-1.82.24,6.88,6.88,0,0,1-1.29-.13A6.89,6.89,0,0,0,110,34.35a13.84,13.84,0,0,1-8.55,2.94,14.75,14.75,0,0,1-1.64-.09,19.48,19.48,0,0,0,10.55,3.09"/>
        <path class="cls-2" d="M116.65,97.73a6.61,6.61,0,1,1-6.61,6.6,6.61,6.61,0,0,1,6.61-6.6m0-3.11a9.71,9.71,0,1,0,9.71,9.71,9.72,9.72,0,0,0-9.71-9.71Z"/>
        <path class="cls-2" d="M40.33,86.71a6.61,6.61,0,1,1-6.61,6.61,6.61,6.61,0,0,1,6.61-6.61m0-3.11A9.72,9.72,0,1,0,50,93.32a9.71,9.71,0,0,0-9.71-9.72Z"/>
        <path class="cls-2" d="M22.35,126a6.61,6.61,0,1,1-6.61,6.61A6.62,6.62,0,0,1,22.35,126m0-3.1a9.71,9.71,0,1,0,9.71,9.71,9.7,9.7,0,0,0-9.71-9.71Z"/>
      </g>
    </g>
  </g>
</svg>
