<svg xmlns="http://www.w3.org/2000/svg" xmlns:xlink="http://www.w3.org/1999/xlink" width="156.9" height="156.77" viewBox="0 0 156.9 156.77">
  <defs>
    <style>
      .cls-1 {
        fill: url(#linear-gradient);
      }

      .cls-2 {
        fill: #142b65;
      }
    </style>
    <linearGradient id="linear-gradient" x1="-5279.48" y1="-2757.44" x2="-5124.1" y2="-2757.44" gradientTransform="translate(5707.11 -1650.73) rotate(-45)" gradientUnits="userSpaceOnUse">
      <stop offset="0" stop-color="#fff"/>
      <stop offset="1" stop-color="#ffc392"/>
    </linearGradient>
  </defs>
  <title>Asset 2</title>
  <g id="Layer_2" data-name="Layer 2">
    <g id="Layer_1-2" data-name="Layer 1">
      <g>
        <circle class="cls-1" cx="79.08" cy="77.69" r="77.69"/>
        <path class="cls-2" d="M89.16,11.81a55.8,55.8,0,1,1-55.8,55.8,55.86,55.86,0,0,1,55.8-55.8m0-3.1a58.91,58.91,0,1,0,58.91,58.9A58.9,58.9,0,0,0,89.16,8.71Z"/>
        <rect class="cls-2" x="38.9" y="111.21" width="11.2" height="3.11" transform="translate(-66.71 64.5) rotate(-45)"/>
        <path class="cls-2" d="M13.57,156.77,0,143.2l34.6-34.6,13.58,13.57ZM4.39,143.2l9.18,9.18,30.21-30.21L34.6,113Z"/>
        <polygon class="cls-2" points="33.48 59.02 5.3 59.02 5.3 2.68 61.64 2.68 61.64 18.83 58.54 18.83 58.54 5.79 8.41 5.79 8.41 55.91 33.48 55.91 33.48 59.02"/>
        <polygon class="cls-2" points="85.73 83.1 33 83.1 33 79.99 82.62 79.99 82.62 10.66 85.73 10.66 85.73 83.1"/>
        <path class="cls-2" d="M122.4,153.36a34.31,34.31,0,0,1-34.07-29l3.07-.49a31.39,31.39,0,1,0,48.55-31l1.74-2.57a34.49,34.49,0,0,1-19.29,63.09Z"/>
        <path class="cls-2" d="M146,75.45a1.59,1.59,0,0,1-1.17-.52,47.65,47.65,0,0,0-55-11.83,1.55,1.55,0,0,1-2-.78,1.54,1.54,0,0,1,.78-2,50.74,50.74,0,0,1,58.62,12.59A1.55,1.55,0,0,1,146,75.45Z"/>
        <path class="cls-2" d="M61.39,119.26a1.55,1.55,0,0,1-1.51-1.21A50.81,50.81,0,0,1,63,85.84a1.56,1.56,0,0,1,2.84,1.27,47.13,47.13,0,0,0-4.14,19.43,48.3,48.3,0,0,0,1.23,10.81,1.55,1.55,0,0,1-1.16,1.87A2.21,2.21,0,0,1,61.39,119.26Z"/>
      </g>
    </g>
  </g>
</svg>
